<svg width="102" height="102" viewBox="0 0 102 102" fill="none" xmlns="http://www.w3.org/2000/svg">
<g id="ri:double-quotes-l">
<path id="Vector" d="M19.7065 73.5361C15.3514 68.9104 13.0132 63.7224 13.0132 55.3124C13.0132 40.5135 23.402 27.2495 38.5095 20.6915L42.2853 26.5181C28.1841 34.1458 25.4273 44.0441 24.3279 50.285C26.5985 49.1096 29.571 48.6994 32.4842 48.97C40.112 49.6762 46.1246 55.9382 46.1246 63.7224C46.1246 67.6473 44.5654 71.4114 41.7901 74.1868C39.0147 76.9621 35.2506 78.5213 31.3257 78.5213C29.1552 78.5023 27.0101 78.0518 25.0153 77.1959C23.0205 76.3401 21.2159 75.096 19.7065 73.5361ZM61.9889 73.5361C57.6338 68.9104 55.2956 63.7224 55.2956 55.3124C55.2956 40.5135 65.6844 27.2495 80.792 20.6915L84.5678 26.5181C70.4666 34.1458 67.7098 44.0441 66.6104 50.285C68.881 49.1096 71.8534 48.6994 74.7667 48.97C82.3945 49.6762 88.407 55.9382 88.407 63.7224C88.407 67.6473 86.8479 71.4114 84.0725 74.1868C81.2972 76.9621 77.5331 78.5213 73.6082 78.5213C71.4376 78.5023 69.2925 78.0518 67.2978 77.1959C65.303 76.3401 63.4984 75.096 61.9889 73.5361Z" fill="black" fill-opacity="0.19"/>
</g>
</svg>
